<svg xmlns="http://www.w3.org/2000/svg" viewBox="0 0 683.19 698.59"><defs><style>.cls-1{fill:#1a1a1a;}.cls-2{stroke:#000;stroke-miterlimit:10;}.cls-3{fill:#333;}.cls-4{fill:#fff;}</style></defs><g id="Layer_2" data-name="Layer 2"><g id="Layer_1-2" data-name="Layer 1"><line x1="442.77" y1="600.5" x2="485.08" y2="688.66"/><path d="M434.13,605.55l37,77.13,5.3,11c2.33,4.87,9.29,6.15,13.68,3.58,5-2.91,5.93-8.79,3.58-13.68l-37-77.13-5.29-11c-2.33-4.87-9.29-6.15-13.68-3.59-5,2.92-5.93,8.8-3.59,13.69Z"/><line x1="245.08" y1="601.66" x2="200.08" y2="686.66"/><path d="M236.45,596.61,197.05,671l-5.6,10.59c-6,11.37,11.23,21.49,17.26,10.1l39.4-74.41,5.6-10.59c6-11.37-11.23-21.49-17.26-10.1Z"/><line class="cls-1" x1="343.08" y1="9.66" x2="343.08" y2="48.66"/><path d="M333.08,9.66v39c0,12.87,20,12.89,20,0v-39c0-12.87-20-12.89-20,0Z"/><path d="M134.57,231.81c-4.78-3.52-9.61-5.09-16.92-5.5-1.47-.08-2.63-.14-3.64-.14-3,0-4.67.43-9,1.86-11.62,3.91-21.47,9.91-28.41,17.33-7.55,8.07-10.58,17.89-9.93,32.19.82,18,7.26,32.05,22.81,49.54,14.21,16,16.38,19.44,19.43,30.82,3.5,13,2.37,19.33-5.52,30.74-6.08,8.8-11.15,12.12-19.47,12.78l-5,.39-5.5-3.42c-6.9-4.29-12.33-9.22-15.82-14.36-4.26-6.29-9.62-7.46-14-3.08-2.7,2.7-3,5.38-1.39,10.71,4.12,13.3,16.57,24.48,33.35,30a32.9,32.9,0,0,0,7.79,1.57c7.89.08,21-5.14,28.71-11.41,8.32-6.78,18.11-21.7,20.63-31.44a54.13,54.13,0,0,0,1-12.38c0-7.29-.29-9.41-2.32-17.23-3.79-14.57-8.71-22.5-24.7-39.75C96.54,300,92.48,293.12,89.64,282.11c-1.82-7-1.86-12.58-.15-18.42,2.2-7.51,19.41-19.34,28.19-19.39a14.4,14.4,0,0,1,6,1.5c3,1.5,3,1.54,3.21,5.39.17,3.4.48,4.17,2.54,6.23,1.9,1.89,2.86,2.34,5.05,2.34,6.14,0,8.7-3.23,8.66-10.9C143.14,241,140.8,236.39,134.57,231.81Z"/><path d="M193,255.78a11,11,0,0,0-4.46-1.18c-4.39-.17-8.39,2.58-10.46,7.6-2.45,6-.58,12.55,4.36,15.39,6.09,3.51,12.66.23,15.23-7.6C199.62,264,197.66,258.07,193,255.78Z"/><path d="M177.15,300.49c-4.39,0-5.82,2.18-9.65,14.7-8.71,28.49-11.43,42.36-12.1,61.62-.45,12.92.52,16,5.78,18.5a26.44,26.44,0,0,0,3.27,1.38,11.87,11.87,0,0,0,6.31-2.87c2-2.4,8.54-27.19,11.82-44.89,2.6-14.06,5-39,4.08-41.49C184.8,302.61,181.9,300.49,177.15,300.49Z"/><path d="M277.51,336.24c-1.4-5.19-3.76-9-7-11.27-2.5-1.76-3.5-2.05-7.06-2-4.73,0-7.58,1.24-11.32,4.83l-2.47,2.36.36-4c.35-3.77.24-4.13-1.79-6.45a8.22,8.22,0,0,0-4.4-2.86,6,6,0,0,0-1.2-.15,8.9,8.9,0,0,0-4,.91c-4.3,1.93-5.51,4.56-6.66,14.41-.71,6.07-6.13,31.93-7.75,37-1.45,4.48-1.93,11.52-1,14.34a12.52,12.52,0,0,0,9.07,7.57c2.5.38,3.67.16,6.24-1.13,4.22-2.11,5.61-4.21,6.68-10.11s5.38-14.7,10.49-21.4a32.63,32.63,0,0,1,4-4.7c.55,0,4.25,12.85,5.89,20.51,2.26,10.53,3.48,13.95,5.83,16.3,1.78,1.77,2.72,2.19,5,2.19a8.58,8.58,0,0,0,7.74-4.21c1.3-2.19,1.32-1.41-.68-19.91A261.42,261.42,0,0,0,277.51,336.24Z"/><path d="M384.07,317.52a9.42,9.42,0,0,0-3.5-1,13.61,13.61,0,0,0-1.43,0c-3.36.12-6.84,1.62-8.68,4.09a41.09,41.09,0,0,0-3.25,7.67c-4.56,13.5-14.12,30-21.89,37.83-3.72,3.74-4.47,4.2-6.84,4.2-3.48,0-5.64-1.75-7.5-6.08-2.93-6.82-1.86-25.33,1.63-28.23.56-.47,1.65-2.92,2.42-5.46l1.4-4.62L335,323c-2.38-4.91-7.05-6.37-11.58-3.6-4.25,2.6-7.18,7.54-10.69,18-2.91,8.69-4,22.38-2.4,29.66,3,13.39,10,21.67,20.94,24.58,4.54,1.21,13.6,1.16,17.15-.09,5.48-1.93,15.79-10.65,20.61-17.43l1.39-1.94.4,7.11c.43,7.66,1.3,10.2,4.26,12.53a7.4,7.4,0,0,0,4.73,1.4c2.41,0,3.4-.41,5.43-2.27l2.48-2.27.87-16.06c.48-8.83.94-23.5,1-32.58l.17-16.53L387.91,321A14.52,14.52,0,0,0,384.07,317.52Z"/><path d="M458.05,342.12c-6.25-4.46-11.87-8.67-12.49-9.36-1.07-1.17-1-1.34.72-3a10,10,0,0,1,3.69-2.21c1.67-.42,1.85-.29,1.85,1.33,0,8.82,13.08,10.71,16.42,2.37,1.31-3.29,1.4-10,.16-13-1.3-3.12-5.25-6.3-9.3-7.51a37,37,0,0,0-10-1.06c-3.6,0-7,.48-8.56,1.3-4.37,2.24-12.78,10-14.93,13.71-2.48,4.33-2.78,9.84-.74,13.83,2.26,4.43,9.5,11.41,20.24,19.52,14.37,10.85,15.29,13,8,18.28a10.26,10.26,0,0,1-4.52,2c-2.36,0-8.91-3.17-15.68-7.6-3.07-2-6.24-4-7-4.41-5.45-2.83-12.54,2.75-11.37,8.95.56,3,3.25,5.8,11.35,11.87,6.67,5,14.42,9.13,18.75,10,4,.8,3.76.8,8.61,0a32.06,32.06,0,0,0,8.32-2.82c4.8-2.56,11.65-9.06,14.24-13.52,4.11-7.07,2.7-18.37-3.31-26.53C470,351.09,467,348.52,458.05,342.12Z"/><path d="M524.19,300.49c-4.39,0-5.81,2.18-9.64,14.7-8.71,28.49-11.44,42.36-12.1,61.62-.45,12.92.52,16,5.78,18.5a25.77,25.77,0,0,0,3.27,1.38,11.87,11.87,0,0,0,6.31-2.87c2-2.4,8.54-27.19,11.81-44.89,2.61-14.06,5.06-39,4.09-41.49C531.85,302.61,528.94,300.49,524.19,300.49Z"/><path d="M540,255.78a11,11,0,0,0-4.47-1.18c-4.39-.17-8.39,2.58-10.45,7.6-2.46,6-.58,12.55,4.36,15.39,6.09,3.51,12.66.23,15.23-7.6C546.67,264,544.71,258.07,540,255.78Z"/><path d="M606.26,352c.6-.42,3.4-2.46,6.22-4.53,9.24-6.79,20.2-13.38,22.25-13.38,5.5,0,10.08-4.21,10.17-9.34.11-5.58-3.91-9.18-9.6-8.58-3.72.4-19.36,7.61-29.81,13.76-3.79,2.22-7,3.79-7,3.49-.18-.71,4.84-23,9.22-41.05,4.3-17.65,10-35.56,12.21-38.12a41.47,41.47,0,0,0,4.14-8c4.75-11.44,5.06-14.61,1.74-18.2-1.55-1.69-2.36-2-5.43-2-2.89,0-4,.32-5.55,1.64-5,4.19-9.31,12-16.8,30.12-9.34,22.6-17.08,52.59-22.62,87.65-3.13,19.77-6.27,49.31-5.45,51.28a7.72,7.72,0,0,0,2.51,2.58,9.89,9.89,0,0,0,4.58,1.31c2.12,0,3.14-.48,5.44-2.53,3.14-2.8,3.15-2.84,6.68-19.74l1.77-8.48,6.21,3c3.41,1.64,9.57,4.31,13.67,5.94a106.52,106.52,0,0,1,13.53,6.68c7.4,4.54,9.73,4.8,13.69,1.54,3.23-2.67,4.51-6.53,3.23-9.76-1.66-4.18-10.19-10.64-23.47-17.78C607.62,354.07,605.38,352.61,606.26,352Z"/><polygon class="cls-2" points="77.58 200.66 77.58 59.16 608.58 59.16 608.58 200.66 618.58 200.66 618.58 49.16 67.58 49.16 67.58 200.66 77.58 200.66"/><polygon class="cls-2" points="608.58 445.66 608.58 590.16 77.58 590.16 77.58 445.66 67.58 445.66 67.58 600.16 618.58 600.16 618.58 445.66 608.58 445.66"/><path class="cls-3" d="M466.91,451.35a15.43,15.43,0,0,1-4.45.7,21.6,21.6,0,0,1-4.62-.32c-2.82-.53-4.81-1.71-4.19-3.6L452.42,446c2.25,0,8-.32,12.17.2C468.72,446.48,471.27,447.72,466.91,451.35Z"/><path class="cls-4" d="M469.93,467.51c-4.89-.68-1.35-2.12-.68-3.58l6.53-.48C478,465,472.63,466.67,469.93,467.51Z"/><path class="cls-3" d="M470.65,502.44l2.17.62a23.59,23.59,0,0,0-7.26-.57c-.17-.9.67-1.9,2.06-2.61a8.81,8.81,0,0,1,2.45-.8,10.21,10.21,0,0,1,2.95-.2C472.3,500.38,468.31,500.9,470.65,502.44Z"/><path class="cls-3" d="M371.83,464.09c-1,2.66-.21,6.17,1.84,9.8a36.35,36.35,0,0,0,9.2,10.4c-1.29,3-2.59,5.94-3.91,8.88-2.94-2.56-7.57-3.56-12.7-4-2.57-.24-5.27-.3-7.93-.47s-5.28-.43-7.72-.77c-4,1.29,8.63,4.42-1.3,4.89-.89-1.5.25-3.65-1.64-4.84-4.47.54-5.89,2.76-8.51,4.24a9.83,9.83,0,0,1-5.36,1.28,38.06,38.06,0,0,1-10.3-2l-5.31-5.62c-4-.73-8-1.69-12.07-2.46s-8.12-1.53-12.23-2.22c-2.06-.31-4.08-.78-6.12-1.19l-6.11-1.24-12.23-2.53c-8-2.05-16-4.2-23.66-6.85a146.39,146.39,0,0,1-21.68-10.07c-3.44,1-8.7-.41-14.36-2.29-2.82-.94-5.76-2-8.6-2.88a49.67,49.67,0,0,0-8-2.22l1-2.57c-3.51.88-6.79-1-10-3.45-1.58-1.22-3.17-2.53-4.7-3.78a20.45,20.45,0,0,0-4.66-3.05l-4.2-5.23c.08-5.09,16.45,6.38,14.7-2.21-4.83-4.78-10.35-5.95-15.68-7.15a37.88,37.88,0,0,1-7.65-2.27A16.43,16.43,0,0,1,155.6,417c-8.73-6.48-9.29-3.09-15.85-5.27-2.92,1.46.45,3.47-1.81,5.82-10.86-5.75-14.58-11.94-17.88-17.88s-6-12-15.08-17.46c-1,.71-5.84-.1-9,.21-1.58.17-2.77.67-2.88,1.9a4.5,4.5,0,0,0,.73,2.43,14.41,14.41,0,0,0,1.14,1.7c.49.62,1.08,1.29,1.79,2l7.92,1.94,2.52,5.48c-4.93-3.24-13.73-9.59-14.53-6.3-.14-6.52-9.68-10.48-16.5-13.28-3.41-1.39-6.1-2.5-6.48-3.46-.2-.47.16-.88,1.27-1.25a37.16,37.16,0,0,1,5.81-1.09c6.53,8,9.23,9.33,16.91,9.73A267.15,267.15,0,0,1,70,360.72c-3.59-3.58-7.09-7.05-10.59-10.35s-6.82-6.61-10.34-9.58l-7.16.08c2.64-3.75-2.33-11.73-8-18.54-3.47-1.76-6.84-5.28-7.49-2.82-1.56.47,4.13,6.11,8.1,11.1,2,2.52,3.59,4.76,3.6,6.18s-1.59,2-5.94.91c-3.54-3.79-7-7.74-10.38-11.73-1.66-2-3.29-4-4.86-6l-2.31-3c-.74-1-1.45-2-2.15-3.06-5.57-8.17-10-16.09-12.46-22.94,7.67,5.76,11.82,11.39,23.26,13.78a234.6,234.6,0,0,1,21.18,15.06c1.7,1.37,3.44,2.69,5.18,4l5.18,4,10.29,8.13,2.57,2,2.64,1.94,5.27,3.83c3.53,2.53,7.07,5,10.64,7.37l2.69,1.76,2.75,1.63q2.77,1.61,5.56,3.11c3.73,2,7.5,3.85,11.32,5.5-.43,1.63.88,4,1.9,6s1.63,3.81-.38,4.4c1.25,3.55,9.58,6.3,8.93,11.34,1.48.67,3,1.36,4.43,2.09s2.94,1.49,4.46,2.21q4.49,2.2,8.93,4.69c3,1.64,5.89,3.37,8.8,5.14l2.18,1.33,2.21,1.28,4.39,2.6c2.91,1.74,5.78,3.51,8.61,5.28s5.59,3.57,8.4,5.16c5.58,3.26,10.93,6.42,16,9.26-.49-2.56.19-3.71,1.59-4a6.47,6.47,0,0,1,2.58.13,25.52,25.52,0,0,1,3.38.89c4.87,1.57,10.9,4.37,14.48,4.27a15.41,15.41,0,0,0,3.91,3.9,36.84,36.84,0,0,0,5.44,2.94c3.91,1.75,8.19,3.17,11.69,4.63,1.31-.93,5.82.45,5.65-2.11-5.52-1.28-6.68-3.77-11.59-6.8,2.29-2.26,5-1,8.21,1.32,1.59,1.14,3.25,2.62,5.07,3.89a33.26,33.26,0,0,0,5.65,3.34l-5.37,1.41a52.53,52.53,0,0,1,9.74,5.55c3.23,2.18,6.4,4.76,9.75,6.81a58.05,58.05,0,0,0,10.08,5.4,26.61,26.61,0,0,0,5.15,1.49,17.55,17.55,0,0,0,2.6.3,19.46,19.46,0,0,0,2.64-.14l-2.2-2.16-2.15-2.25-4.25-4.5c7.86,1.51,16,5.11,23.77,8.25,1.95.75,3.86,1.55,5.79,2.1a51.88,51.88,0,0,0,5.67,1.32,22.53,22.53,0,0,0,10.47-.37c-4.87-2.32-11.82-3.38-17.26-5-5.39-1.73-9.28-3.75-8-7.43.87-1.89,4.18-1.92,7.89-1.07a41.91,41.91,0,0,1,10.44,3.89,45.88,45.88,0,0,0,8.33,4c1.39.51,2.78.94,4.17,1.31s2.8.57,4.19.78a141.84,141.84,0,0,0,16.36,1.05c5.34,0,10.54,0,15.59.93q1.9.36,3.78.9c1.25.37,2.5.83,3.75,1.27A34.35,34.35,0,0,1,371.83,464.09Z"/><path class="cls-3" d="M341,445.9c-9.76-1.79-12.8.45-15.74,2.52s-5.77,3.88-15.14,1c1.7-1.72.44-4-2-6.08a24,24,0,0,0-4.28-2.86,34.73,34.73,0,0,0-4.72-2.2,24.79,24.79,0,0,1-9.79-1.57c-1.57-.52-3.11-1.11-4.57-1.65l-2.15-.77c-.69-.27-1.37-.52-2-.73-1.63-1-1.92-2.66-.95-3.79a3.78,3.78,0,0,1,2.4-1.14,11.49,11.49,0,0,1,4.27.44c7.3,6.45,17.38,8.44,27.37,9.4,2.5.29,5,.58,7.41.94,1.21.17,2.41.39,3.6.59s2.38.36,3.54.6A31.39,31.39,0,0,1,341,445.9Z"/><path class="cls-4" d="M354.59,471.39c-5.2-.48-6.44-3-7.66-5.2a7.54,7.54,0,0,0-2.34-2.91c-1.1-.75-2.72-1-5.3-1,2.55-2.05,3.93-1.92,5.83-1a25.43,25.43,0,0,0,9,3.13l-5.79,2Z"/><path class="cls-3" d="M276.37,439.43a43.2,43.2,0,0,1-12-5.62c-4-2.58-6.81-5.95-6.05-8.56-.72-.76,1.75-2.76-1.92-3.14a55.18,55.18,0,0,0,5,3.25c1,.65,2.14,1.26,3.27,1.9s2.27,1.33,3.38,2.05C272.49,432.17,276.35,435.58,276.37,439.43Z"/><path class="cls-4" d="M298.13,468.72a29.4,29.4,0,0,1-2.95-.14c-1-.14-2-.33-3-.56-2.12-.47-4.45-1.12-7.25-1.89,2,.07,4.21-.14,6.49.08A12.92,12.92,0,0,1,298.13,468.72Z"/><path class="cls-3" d="M265,446.31c-.13,4.28-5.65-.86-7.43-1.44-1.05-.95-2.07-2-3.08-3a30.17,30.17,0,0,1,5.88,1.22A9.11,9.11,0,0,1,265,446.31Z"/><path class="cls-3" d="M217.62,413.91c-3.87-2.81-1.11-2.91,1.37-3s4.71-.21-.11-3l3,1.14c1,.38,2,.69,3,1l-.48,6.72C222.14,415.87,219.84,415,217.62,413.91Z"/><path class="cls-3" d="M207.25,402.55c-3,.1-5.74-.56-9.27-4l3.34-.85C203.28,397.75,203.92,401,207.25,402.55Z"/><path class="cls-3" d="M212,420.88c-4.76-.7-2.76-3.3-4.8-5.76C209.56,414.2,216.42,422.41,212,420.88Z"/><path class="cls-3" d="M152.46,433a8.46,8.46,0,0,1,4.86-.06,22.83,22.83,0,0,1,5.14,2c3.53,1.82,7.33,4.28,11.57,5.69-4.24-1.4-7.52-1.94-10.81-2.79a37,37,0,0,1-5.06-1.68A29.17,29.17,0,0,1,152.46,433Z"/><path class="cls-3" d="M530.37,435.32c4,.74,7.92-1.79,10-3.82L538,430.27Z"/><path class="cls-3" d="M477.1,443c-1.59,3.23-.78,3.92,1.46,4.23,1.12.16,2.59.22,4.29.46.86.11,1.77.3,2.72.51a19.68,19.68,0,0,1,2.95.86c5.05-.28,10-2,14.82-3.89l1.82-.69,1.79-.78c1.2-.51,2.4-1,3.59-1.47a41.48,41.48,0,0,1,7.23-2.17l5.13-4.51c-3,.13-6.52.38-10.32.78-1.9.21-3.87.45-5.88.73l-3,.43-3.1.37A131,131,0,0,0,477.1,443Z"/><path class="cls-4" d="M473,473.53c4,.81,8.45-.17,12.52-1.45,1-.32,2-.65,3-1L491.3,470a28.53,28.53,0,0,1,4.8-1.52c-2.38.22-4.92.5-7.5.81l-7.77.64c-5.08.44-9.79.88-13.1,1.13C467,472.54,471,472.89,473,473.53Z"/><path class="cls-3" d="M619.19,399.53c-2.83,1.37-6.07,2.58-9.47,3.83l-10.54,3.89a60.32,60.32,0,0,0-10.31,4.95,39.07,39.07,0,0,0-4.65,3.38,35.6,35.6,0,0,0-4.18,4c6.49-1,7.22.53,17-2.18-2,5.09-5.75,6.35-10,6.75s-9.06-.37-13.28,1.26c7.54-.95-.46,5.55-6.3,8.29-6.09.82-13.59,2.9-21.56,5.32-4,1.06-8.17,2.23-12.28,3.42l-6.15,1.79c-2,.59-4.08,1-6.07,1.51a24.59,24.59,0,0,1-7.25,2.68c-1.52.38-3.12.74-4.73,1.1s-3.22.74-4.76,1c-6.14,1.23-10.91,2.84-8.62,6.35-4.94,1.16-8,.41-10.72-.84s-5.19-2.89-9-3.27a24.72,24.72,0,0,1-15.6,3.14c-5.18-.56-10.3-2.19-15.39-3.75-5.1-1.76-10.17-3.54-15.39-4.09a31.34,31.34,0,0,0-16.48,2.44c1.5-4.61-10-3.94-14.44-4.78-2.44-.22-5.7-.5-9.17-.66-1.73-.09-3.51-.12-5.25-.15s-3.46-.1-5.07,0c-6.42.23-11.21,1.75-9.15,6.29,3,3.25,8.3,2.93,13.93,2.62,5.68-.56,11.7-1.1,16.77,2.09,4.39,2.64,5.45,3.9,4.48,4.81s-3.94,1.09-7.49,1.23c-7.11.24-16.56.25-17.07,3.95,1.4-.55,2.31.92,3.95,2.22s4,2.57,8.19,1.61c-8.87,1.21-7.28,3.45-4.52,5.92s6.66,5.15,1.89,7.22c5.08,1.49,8.81,2.6,11.67,3.59a37.23,37.23,0,0,1,6.59,2.62c3.42,1.88,5.51,4.39,10.88,9.4,6.41-.64,8.68-2.94,9.8-5.31s1.08-5,2.83-6.93a25.38,25.38,0,0,1,9.44-1.18,41.8,41.8,0,0,1,4.48.53c1.47.23,2.93.45,4.38.72,5.78,1.05,11.46,2.35,17.14.88-3.82,6.31,1.26,8.37,9.08,8.09a108.17,108.17,0,0,0,12.94-1.32c2.23-.29,4.4-.81,6.46-1.22s4-.83,5.69-1.15c17.78-2.5,4.09-11.23,22.49-14.14,5.16,1.82,1,4.69-2.93,7.55s-7.5,5.7-.76,7.39l8.07-4.25c2.22-2.87,4-6,6-9a38.27,38.27,0,0,1,6.73-8.5c3.73-1.06,9.3-2.66,9.94-.94-6.82,3.85-3.47,7.64,5.13,8,3.13-2.84,3.86-3.65,5.06-5.95-9.36-3.86-5.43-5.28,1.78-7,3.61-.87,8.09-1.84,12.16-3.24s7.64-3.54,9.58-6.22c6.59-5.23,11.16-7.18,14.72-7.83s6.26.57,9,1.84,5.57,2.67,9.42,2.68,8.66-1.57,15.32-6.15c-6.76-3.08-2.59-6.6,4.12-10.34.84-.47,1.72-.95,2.63-1.42l2.72-1.55c1.84-1,3.72-2.09,5.5-3.15,3.57-2.13,6.75-4.28,8.53-6.39a26.57,26.57,0,0,1,9.83-2.71c2.91-.18,5.74.15,9.28.2,1.51-2.25,7.09-6.1,6.88-8.48-5.92-5.31-15-8.62-25.87-10.55-2.72-.49-5.54-.86-8.49-1.21s-6-.73-9.19-1-6.37-.46-9.66-.6-6.6-.16-10.06-.35C619.43,398.76,619,399.25,619.19,399.53Z"/></g></g></svg>